<?xml version="1.0" encoding="UTF-8" standalone="no"?>
<svg
   xmlns:dc="http://purl.org/dc/elements/1.1/"
   xmlns:cc="http://creativecommons.org/ns#"
   xmlns:rdf="http://www.w3.org/1999/02/22-rdf-syntax-ns#"
   xmlns:svg="http://www.w3.org/2000/svg"
   xmlns="http://www.w3.org/2000/svg"
   xmlns:xlink="http://www.w3.org/1999/xlink"
   xmlns:sodipodi="http://sodipodi.sourceforge.net/DTD/sodipodi-0.dtd"
   xmlns:inkscape="http://www.inkscape.org/namespaces/inkscape"
   id="svg4031"
   height="48"
   width="48"
   version="1.1"
   inkscape:version="0.91 r13725"
   sodipodi:docname="com.github.artemanufrij.trimdown.svg">
  <sodipodi:namedview
     pagecolor="#ffffff"
     bordercolor="#666666"
     borderopacity="1"
     objecttolerance="10"
     gridtolerance="10"
     guidetolerance="10"
     inkscape:pageopacity="0"
     inkscape:pageshadow="2"
     inkscape:window-width="1774"
     inkscape:window-height="1048"
     id="namedview54"
     showgrid="true"
     inkscape:zoom="11.313709"
     inkscape:cx="14.373671"
     inkscape:cy="34.2266"
     inkscape:window-x="409"
     inkscape:window-y="202"
     inkscape:window-maximized="0"
     inkscape:current-layer="svg4031"
     showborder="true">
    <inkscape:grid
       type="xygrid"
       id="grid4188"
       empspacing="4" />
    <inkscape:grid
       type="xygrid"
       id="grid4190"
       spacingx="0.5"
       spacingy="0.5"
       color="#ff3fff"
       opacity="0.1254902"
       empcolor="#3fffff"
       empopacity="0.11764706"
       empspacing="2" />
  </sodipodi:namedview>
  <defs
     id="defs4033">
    <linearGradient
       inkscape:collect="always"
       id="linearGradient4260">
      <stop
         style="stop-color:#ffffad;stop-opacity:1;"
         offset="0"
         id="stop4262" />
      <stop
         style="stop-color:#ffe16b;stop-opacity:1"
         offset="1"
         id="stop4264" />
    </linearGradient>
    <linearGradient
       id="linearGradient4295"
       inkscape:collect="always">
      <stop
         id="stop4297"
         offset="0"
         style="stop-color:#ffffff;stop-opacity:0" />
      <stop
         id="stop4299"
         offset="1"
         style="stop-color:#ffffff;stop-opacity:1" />
    </linearGradient>
    <linearGradient
       inkscape:collect="always"
       id="linearGradient4233">
      <stop
         style="stop-color:#d4d4d4;stop-opacity:1"
         offset="0"
         id="stop4235" />
      <stop
         style="stop-color:#abacae;stop-opacity:1"
         offset="1"
         id="stop4237" />
    </linearGradient>
    <linearGradient
       inkscape:collect="always"
       id="linearGradient4399">
      <stop
         style="stop-color:#000000;stop-opacity:0"
         offset="0"
         id="stop4401" />
      <stop
         style="stop-color:#333333;stop-opacity:1"
         offset="1"
         id="stop4403" />
    </linearGradient>
    <linearGradient
       inkscape:collect="always"
       id="linearGradient4371">
      <stop
         style="stop-color:#abacae;stop-opacity:1"
         offset="0"
         id="stop4373" />
      <stop
         style="stop-color:#7e8087;stop-opacity:1"
         offset="1"
         id="stop4375" />
    </linearGradient>
    <linearGradient
       inkscape:collect="always"
       id="linearGradient4363">
      <stop
         style="stop-color:#ffffff;stop-opacity:1;"
         offset="0"
         id="stop4365" />
      <stop
         style="stop-color:#000000;stop-opacity:0"
         offset="1"
         id="stop4367" />
    </linearGradient>
    <linearGradient
       inkscape:collect="always"
       id="linearGradient4215">
      <stop
         style="stop-color:#ffffff;stop-opacity:1;"
         offset="0"
         id="stop4217" />
      <stop
         style="stop-color:#000000;stop-opacity:0"
         offset="1"
         id="stop4219" />
    </linearGradient>
    <linearGradient
       inkscape:collect="always"
       id="linearGradient4205">
      <stop
         style="stop-color:#ffffff;stop-opacity:1"
         offset="0"
         id="stop4207" />
      <stop
         style="stop-color:#000000;stop-opacity:1"
         offset="1"
         id="stop4209" />
    </linearGradient>
    <linearGradient
       id="linearGradient3820-7-2-1">
      <stop
         offset="0"
         style="stop-color:#3d3d3d;stop-opacity:1"
         id="stop3822-2-6-3" />
      <stop
         offset="0.5"
         style="stop-color:#686868;stop-opacity:0.49803922"
         id="stop3864-8-7-7" />
      <stop
         offset="1"
         style="stop-color:#686868;stop-opacity:0"
         id="stop3824-1-2-5" />
    </linearGradient>
    <radialGradient
       gradientTransform="matrix(0.27083381,0,0,0.08762273,-2.855072,25.187228)"
       gradientUnits="userSpaceOnUse"
       xlink:href="#linearGradient3820-7-2-1"
       id="radialGradient3018"
       fy="186.17059"
       fx="99.157013"
       r="62.769119"
       cy="186.17059"
       cx="99.157013" />
    <linearGradient
       id="linearGradient4011-7">
      <stop
         offset="0"
         style="stop-color:#ffffff;stop-opacity:1"
         id="stop4013-4" />
      <stop
         offset="0.507761"
         style="stop-color:#ffffff;stop-opacity:0.23529412"
         id="stop4015-61" />
      <stop
         offset="0.83456558"
         style="stop-color:#ffffff;stop-opacity:0.15686275"
         id="stop4017-2" />
      <stop
         offset="1"
         style="stop-color:#ffffff;stop-opacity:0.39215687"
         id="stop4019-2" />
    </linearGradient>
    <linearGradient
       id="linearGradient8838-4">
      <stop
         offset="0"
         style="stop-color:#000000;stop-opacity:1"
         id="stop8840-4" />
      <stop
         offset="1"
         style="stop-color:#000000;stop-opacity:0"
         id="stop8842-8" />
    </linearGradient>
    <linearGradient
       gradientTransform="matrix(0.5135135,0,0,0.5135135,-0.836132,22.978716)"
       gradientUnits="userSpaceOnUse"
       xlink:href="#linearGradient4011-7"
       id="linearGradient3741"
       y2="42.883553"
       x2="71.204407"
       y1="7.8309216"
       x1="71.204407" />
    <radialGradient
       gradientTransform="matrix(1.1294118,0,0,0.2823525,-34.729414,43.694118)"
       gradientUnits="userSpaceOnUse"
       xlink:href="#linearGradient8838-4"
       id="radialGradient3748"
       fy="4.625"
       fx="62.625"
       r="10.625"
       cy="4.625"
       cx="62.625" />
    <linearGradient
       id="linearGradient4632-92-3-0-8-1-6-6">
      <stop
         offset="0"
         style="stop-color:#fafafa;stop-opacity:1"
         id="stop4634-68-8-0-2-9-1-1" />
      <stop
         offset="1"
         style="stop-color:#e1e1e1;stop-opacity:1"
         id="stop4636-8-21-7-1-4-9-4" />
    </linearGradient>
    <radialGradient
       xlink:href="#linearGradient4632-92-3-0-8-1-6-6"
       id="radialGradient3398"
       gradientUnits="userSpaceOnUse"
       gradientTransform="matrix(0,1.2189437,-1.289497,-3.3177771e-8,46.896006,18.350992)"
       cx="6.2751122"
       cy="8.4497671"
       fx="6.2751122"
       fy="8.4497671"
       r="19.99999" />
    <linearGradient
       xlink:href="#linearGradient3104-8-8-97-4-6-2-0-1-4-0-5-8-3-9-1"
       id="linearGradient4200-6"
       gradientUnits="userSpaceOnUse"
       gradientTransform="matrix(0.80749834,0,0,0.83374395,113.01159,-2.35899)"
       x1="-95.837799"
       y1="54.199703"
       x2="-95.837799"
       y2="5.1757793" />
    <linearGradient
       id="linearGradient3104-8-8-97-4-6-2-0-1-4-0-5-8-3-9-1">
      <stop
         offset="0"
         style="stop-color:#000000;stop-opacity:0.32173914"
         id="stop3106-5-4-3-5-0-1-61-9-2-7-3-3-2-6-9" />
      <stop
         offset="1"
         style="stop-color:#000000;stop-opacity:0.27826086"
         id="stop3108-4-3-7-8-2-4-01-9-9-0-6-4-3-7-7" />
    </linearGradient>
    <linearGradient
       id="linearGradient2867-449-88-871-390-598-476-591-434-148-57-177-3-8-8">
      <stop
         id="stop3750-8-9-0"
         style="stop-color:#95a3ab;stop-opacity:1"
         offset="0" />
      <stop
         id="stop3752-3-2-2"
         style="stop-color:#667885;stop-opacity:1"
         offset="0.26238" />
      <stop
         id="stop3754-7-2-2"
         style="stop-color:#485a6c;stop-opacity:1"
         offset="0.704952" />
      <stop
         id="stop3756-9-3-05"
         style="stop-color:#273445;stop-opacity:1"
         offset="1" />
    </linearGradient>
    <linearGradient
       id="linearGradient4011-8">
      <stop
         id="stop4013-9"
         style="stop-color:#ffffff;stop-opacity:1"
         offset="0" />
      <stop
         id="stop4015-2"
         style="stop-color:#ffffff;stop-opacity:0.23529412"
         offset="0.507761" />
      <stop
         id="stop4017-28"
         style="stop-color:#ffffff;stop-opacity:0.15686275"
         offset="0.83456558" />
      <stop
         id="stop4019-23"
         style="stop-color:#ffffff;stop-opacity:0.39215687"
         offset="1" />
    </linearGradient>
    <linearGradient
       y2="44.340794"
       x2="71.204407"
       y1="6.2375584"
       x1="71.204407"
       gradientTransform="matrix(1.054054,0,0,1.054054,-51.611004,-2.7279013)"
       gradientUnits="userSpaceOnUse"
       id="linearGradient3540"
       xlink:href="#linearGradient4011-8" />
    <radialGradient
       r="19.99999"
       fy="8.4497671"
       fx="1.1978998"
       cy="8.4497671"
       cx="1.1978998"
       gradientTransform="matrix(0,5.0000024,-5.2894057,-1.3609237e-7,68.694364,-17.989501)"
       gradientUnits="userSpaceOnUse"
       id="radialGradient3543"
       xlink:href="#linearGradient2867-449-88-871-390-598-476-591-434-148-57-177-3-8-8" />
    <linearGradient
       inkscape:collect="always"
       xlink:href="#linearGradient4205"
       id="linearGradient4211"
       x1="21"
       y1="10"
       x2="21"
       y2="18"
       gradientUnits="userSpaceOnUse"
       gradientTransform="matrix(0.95121934,0,0,0.99999998,1.1707321,1.9999955)" />
    <linearGradient
       inkscape:collect="always"
       xlink:href="#linearGradient4215"
       id="linearGradient4221"
       x1="29"
       y1="22"
       x2="29"
       y2="28"
       gradientUnits="userSpaceOnUse"
       gradientTransform="matrix(0.79999992,0,0,0.79999986,5.3000024,5.5000036)" />
    <linearGradient
       inkscape:collect="always"
       xlink:href="#linearGradient4215"
       id="linearGradient4335"
       gradientUnits="userSpaceOnUse"
       x1="29"
       y1="22"
       x2="29"
       y2="28"
       gradientTransform="matrix(0.79999992,0,0,0.79999985,-3.6999989,5.5000058)" />
    <linearGradient
       inkscape:collect="always"
       xlink:href="#linearGradient4215"
       id="linearGradient4339"
       gradientUnits="userSpaceOnUse"
       gradientTransform="matrix(0.79999992,0,0,0.8,-12.7,5.4999982)"
       x1="29"
       y1="22"
       x2="29"
       y2="28" />
    <linearGradient
       inkscape:collect="always"
       xlink:href="#linearGradient4215"
       id="linearGradient4343"
       gradientUnits="userSpaceOnUse"
       gradientTransform="matrix(0.79999992,0,0,0.8,-12.7,14.500003)"
       x1="29"
       y1="22"
       x2="29"
       y2="28" />
    <linearGradient
       inkscape:collect="always"
       xlink:href="#linearGradient4215"
       id="linearGradient4347"
       gradientUnits="userSpaceOnUse"
       gradientTransform="matrix(0.79999992,0,0,0.79999986,-3.6999989,14.500006)"
       x1="29"
       y1="22"
       x2="29"
       y2="28" />
    <linearGradient
       inkscape:collect="always"
       xlink:href="#linearGradient4215"
       id="linearGradient4351"
       gradientUnits="userSpaceOnUse"
       gradientTransform="matrix(0.79999992,0,0,0.79999986,5.3000013,14.500006)"
       x1="29"
       y1="22"
       x2="29"
       y2="28" />
    <linearGradient
       inkscape:collect="always"
       xlink:href="#linearGradient4215"
       id="linearGradient4355"
       gradientUnits="userSpaceOnUse"
       gradientTransform="matrix(0.79999992,0,0,0.79999986,14.300001,14.500005)"
       x1="29"
       y1="22"
       x2="29"
       y2="28" />
    <linearGradient
       inkscape:collect="always"
       xlink:href="#linearGradient4215"
       id="linearGradient4359"
       gradientUnits="userSpaceOnUse"
       gradientTransform="matrix(0.79999992,0,0,0.79999986,14.300001,5.500005)"
       x1="29"
       y1="22"
       x2="29"
       y2="28" />
    <linearGradient
       inkscape:collect="always"
       xlink:href="#linearGradient4363"
       id="linearGradient4369"
       x1="23.5"
       y1="40"
       x2="23.5"
       y2="43"
       gradientUnits="userSpaceOnUse"
       gradientTransform="matrix(1,0,0,1.05,1.5058018e-7,-3.1249871)" />
    <linearGradient
       inkscape:collect="always"
       xlink:href="#linearGradient4371"
       id="linearGradient4377"
       x1="24"
       y1="10"
       x2="24"
       y2="18"
       gradientUnits="userSpaceOnUse"
       gradientTransform="matrix(0.95238079,0,0,1,1.1428581,1.9999968)" />
    <linearGradient
       inkscape:collect="always"
       xlink:href="#linearGradient4399"
       id="linearGradient4405"
       x1="24"
       y1="12"
       x2="24"
       y2="45"
       gradientUnits="userSpaceOnUse" />
    <radialGradient
       inkscape:collect="always"
       xlink:href="#linearGradient4233"
       id="radialGradient4241"
       cx="24"
       cy="10.500002"
       fx="24"
       fy="10.500002"
       r="18"
       gradientTransform="matrix(-1,0,0,-1.8333333,48,31.250004)"
       gradientUnits="userSpaceOnUse" />
    <radialGradient
       id="radialGradient3013"
       cx="4.993"
       cy="43.5"
       r="2.5"
       fx="4.993"
       fy="43.5"
       gradientTransform="matrix(2.4045409,0,0,0.89999994,25.985756,5.6000025)"
       gradientUnits="userSpaceOnUse"
       xlink:href="#linearGradient3688-166-749" />
    <linearGradient
       id="linearGradient3688-166-749">
      <stop
         offset="0"
         style="stop-color:#181818;stop-opacity:1"
         id="stop18" />
      <stop
         offset="1"
         style="stop-color:#181818;stop-opacity:0"
         id="stop20" />
    </linearGradient>
    <radialGradient
       id="radialGradient3015"
       cx="4.993"
       cy="43.5"
       r="2.5"
       fx="4.993"
       fy="43.5"
       gradientTransform="matrix(2.4045409,0,0,0.89999994,-22.014244,-83.899997)"
       gradientUnits="userSpaceOnUse"
       xlink:href="#linearGradient3688-166-749" />
    <linearGradient
       id="linearGradient6647"
       x1="25.058001"
       x2="25.058001"
       y1="47.028"
       y2="39.999001"
       gradientUnits="userSpaceOnUse"
       xlink:href="#linearGradient3702-501-757"
       gradientTransform="matrix(0.99999993,0,0,0.64285717,2.9e-7,16.785713)" />
    <linearGradient
       id="linearGradient3702-501-757">
      <stop
         offset="0"
         style="stop-color:#181818;stop-opacity:0"
         id="stop29" />
      <stop
         offset=".5"
         style="stop-color:#181818;stop-opacity:1"
         id="stop31" />
      <stop
         offset="1"
         style="stop-color:#181818;stop-opacity:0"
         id="stop33" />
    </linearGradient>
    <linearGradient
       inkscape:collect="always"
       xlink:href="#linearGradient4295"
       id="linearGradient4293"
       gradientUnits="userSpaceOnUse"
       x1="24.000002"
       y1="34.366676"
       x2="24"
       y2="45"
       gradientTransform="matrix(0.94285709,0,0,0.93749999,1.3714286,1.781243)" />
    <radialGradient
       inkscape:collect="always"
       xlink:href="#linearGradient4260"
       id="radialGradient4272"
       cx="12"
       cy="-8.0500145"
       fx="12"
       fy="-8.0500145"
       r="17.050005"
       gradientTransform="matrix(-1.7008793,0,0,-0.82111413,56.410551,-4.6099806)"
       gradientUnits="userSpaceOnUse" />
  </defs>
  <metadata
     id="metadata4036">
    <rdf:RDF>
      <cc:Work
         rdf:about="">
        <dc:format>image/svg+xml</dc:format>
        <dc:type
           rdf:resource="http://purl.org/dc/dcmitype/StillImage" />
        <dc:title />
      </cc:Work>
    </rdf:RDF>
  </metadata>
  <rect
     id="rect44"
     style="opacity:0.6;fill:url(#radialGradient3013);fill-opacity:1;stroke:none"
     y="42.5"
     x="38"
     height="4.4999995"
     width="6" />
  <rect
     id="rect46"
     style="opacity:0.6;fill:url(#radialGradient3015);fill-opacity:1;stroke:none"
     transform="scale(-1,-1)"
     y="-47"
     x="-10.000007"
     height="4.4999995"
     width="6" />
  <rect
     id="rect48"
     style="opacity:0.6;fill:url(#linearGradient6647);fill-opacity:1;stroke:none"
     y="42.5"
     x="10.000004"
     height="4.5"
     width="28" />
  <rect
     style="opacity:1;fill:url(#radialGradient4241);fill-opacity:1;fill-rule:nonzero;stroke:none;stroke-width:2;stroke-linecap:square;stroke-linejoin:miter;stroke-miterlimit:4;stroke-dasharray:none;stroke-opacity:1"
     id="rect4174"
     width="36"
     height="33.000004"
     x="6"
     y="12.000001"
     ry="2.999999"
     rx="3" />
  <rect
     rx="2.5"
     ry="2.4999952"
     y="12.500005"
     x="6.5000005"
     height="32.000004"
     width="35"
     id="rect4397"
     style="opacity:0.5;fill:none;fill-opacity:1;fill-rule:nonzero;stroke:url(#linearGradient4405);stroke-width:1;stroke-linecap:square;stroke-linejoin:miter;stroke-miterlimit:4;stroke-dasharray:none;stroke-opacity:1" />
  <ellipse
     style="opacity:1;fill:#1a1a1a;fill-opacity:1;fill-rule:nonzero;stroke:none;stroke-width:2;stroke-linecap:square;stroke-linejoin:miter;stroke-miterlimit:4;stroke-dasharray:none;stroke-opacity:1"
     id="path4194"
     cx="10.499998"
     cy="25.5"
     rx="2.5"
     ry="2.5000005" />
  <circle
     cy="25.5"
     cx="19.5"
     id="circle4187"
     style="opacity:1;fill:#1a1a1a;fill-opacity:1;fill-rule:nonzero;stroke:none;stroke-width:2;stroke-linecap:square;stroke-linejoin:miter;stroke-miterlimit:4;stroke-dasharray:none;stroke-opacity:1"
     r="2.5" />
  <circle
     style="opacity:1;fill:#1a1a1a;fill-opacity:1;fill-rule:nonzero;stroke:none;stroke-width:2;stroke-linecap:square;stroke-linejoin:miter;stroke-miterlimit:4;stroke-dasharray:none;stroke-opacity:1"
     id="circle4189"
     cx="37.499992"
     cy="25.5"
     r="2.5" />
  <circle
     cy="25.5"
     cx="28.5"
     id="circle4191"
     style="opacity:1;fill:#1a1a1a;fill-opacity:1;fill-rule:nonzero;stroke:none;stroke-width:2;stroke-linecap:square;stroke-linejoin:miter;stroke-miterlimit:4;stroke-dasharray:none;stroke-opacity:1"
     r="2.5" />
  <ellipse
     cy="34.499992"
     cx="10.499998"
     id="circle4193"
     style="opacity:1;fill:#000000;fill-opacity:1;fill-rule:nonzero;stroke:none;stroke-width:2;stroke-linecap:square;stroke-linejoin:miter;stroke-miterlimit:4;stroke-dasharray:none;stroke-opacity:1"
     rx="2.5"
     ry="2.5000005" />
  <circle
     style="opacity:1;fill:#1a1a1a;fill-opacity:1;fill-rule:nonzero;stroke:none;stroke-width:2;stroke-linecap:square;stroke-linejoin:miter;stroke-miterlimit:4;stroke-dasharray:none;stroke-opacity:1"
     id="circle4195"
     cx="19.5"
     cy="34.5"
     r="2.5" />
  <circle
     cy="34.5"
     cx="37.499992"
     id="circle4197"
     style="opacity:1;fill:#1a1a1a;fill-opacity:1;fill-rule:nonzero;stroke:none;stroke-width:2;stroke-linecap:square;stroke-linejoin:miter;stroke-miterlimit:4;stroke-dasharray:none;stroke-opacity:1"
     r="2.5" />
  <circle
     style="opacity:1;fill:#1a1a1a;fill-opacity:1;fill-rule:nonzero;stroke:none;stroke-width:2;stroke-linecap:square;stroke-linejoin:miter;stroke-miterlimit:4;stroke-dasharray:none;stroke-opacity:1"
     id="circle4199"
     cx="28.5"
     cy="34.5"
     r="2.5" />
  <rect
     style="opacity:1;fill:#1a1a1a;fill-opacity:1;stroke:none;stroke-width:1;stroke-linecap:butt;stroke-linejoin:round;stroke-miterlimit:4;stroke-dasharray:none;stroke-opacity:1"
     id="rect4201"
     width="20"
     height="3.0000005"
     x="14"
     y="38.999992"
     ry="0.99999988"
     rx="1" />
  <circle
     style="opacity:0.5;fill:#1a1a1a;fill-opacity:1;fill-rule:nonzero;stroke:url(#linearGradient4221);stroke-width:0.99999994;stroke-linecap:square;stroke-linejoin:miter;stroke-miterlimit:4;stroke-dasharray:none;stroke-opacity:1"
     id="circle4213"
     cx="28.500002"
     cy="25.499998"
     r="2" />
  <circle
     cy="25.5"
     cx="19.5"
     id="ellipse4333"
     style="opacity:0.5;fill:#1a1a1a;fill-opacity:1;fill-rule:nonzero;stroke:url(#linearGradient4335);stroke-width:0.99999994;stroke-linecap:square;stroke-linejoin:miter;stroke-miterlimit:4;stroke-dasharray:none;stroke-opacity:1"
     r="2" />
  <ellipse
     style="opacity:0.5;fill:none;fill-opacity:1;fill-rule:nonzero;stroke:url(#linearGradient4339);stroke-width:0.99999994;stroke-linecap:square;stroke-linejoin:miter;stroke-miterlimit:4;stroke-dasharray:none;stroke-opacity:1"
     id="ellipse4337"
     cx="10.499998"
     cy="25.499998"
     rx="2"
     ry="2.0000005" />
  <ellipse
     cy="34.499992"
     cx="10.499998"
     id="ellipse4341"
     style="opacity:0.5;fill:#1a1a1a;fill-opacity:1;fill-rule:nonzero;stroke:url(#linearGradient4343);stroke-width:0.99999994;stroke-linecap:square;stroke-linejoin:miter;stroke-miterlimit:4;stroke-dasharray:none;stroke-opacity:1"
     rx="2"
     ry="2.0000005" />
  <circle
     style="opacity:0.5;fill:#1a1a1a;fill-opacity:1;fill-rule:nonzero;stroke:url(#linearGradient4347);stroke-width:0.99999994;stroke-linecap:square;stroke-linejoin:miter;stroke-miterlimit:4;stroke-dasharray:none;stroke-opacity:1"
     id="ellipse4345"
     cx="19.5"
     cy="34.5"
     r="2" />
  <circle
     cy="34.5"
     cx="28.5"
     id="ellipse4349"
     style="opacity:0.5;fill:#1a1a1a;fill-opacity:1;fill-rule:nonzero;stroke:url(#linearGradient4351);stroke-width:0.99999994;stroke-linecap:square;stroke-linejoin:miter;stroke-miterlimit:4;stroke-dasharray:none;stroke-opacity:1"
     r="2" />
  <circle
     style="opacity:0.5;fill:#1a1a1a;fill-opacity:1;fill-rule:nonzero;stroke:url(#linearGradient4355);stroke-width:0.99999994;stroke-linecap:square;stroke-linejoin:miter;stroke-miterlimit:4;stroke-dasharray:none;stroke-opacity:1"
     id="ellipse4353"
     cx="37.499992"
     cy="34.5"
     r="2" />
  <circle
     cy="25.5"
     cx="37.499992"
     id="ellipse4357"
     style="opacity:0.5;fill:#1a1a1a;fill-opacity:1;fill-rule:nonzero;stroke:url(#linearGradient4359);stroke-width:0.99999994;stroke-linecap:square;stroke-linejoin:miter;stroke-miterlimit:4;stroke-dasharray:none;stroke-opacity:1"
     r="2" />
  <rect
     ry="0.50000757"
     y="39.399986"
     x="14.500002"
     height="2.1000001"
     width="18.999996"
     id="rect4361"
     style="opacity:0.5;fill:none;fill-opacity:1;stroke:url(#linearGradient4369);stroke-width:0.99999982;stroke-linecap:butt;stroke-linejoin:round;stroke-miterlimit:4;stroke-dasharray:none;stroke-opacity:1"
     rx="0.5" />
  <rect
     style="opacity:0.15;fill:none;fill-opacity:1;fill-rule:nonzero;stroke:url(#linearGradient4293);stroke-width:0.99999994;stroke-linecap:square;stroke-linejoin:miter;stroke-miterlimit:4;stroke-dasharray:none;stroke-opacity:1"
     id="rect4291"
     width="33.000008"
     height="30"
     x="7.5000005"
     y="13.500001"
     ry="1.499999"
     rx="1.5000076" />
  <rect
     style="opacity:1;fill:url(#linearGradient4377);fill-opacity:1;fill-rule:nonzero;stroke:none;stroke-width:2;stroke-linecap:square;stroke-linejoin:miter;stroke-miterlimit:4;stroke-dasharray:none;stroke-opacity:1"
     id="rect4176"
     width="40.000004"
     height="8"
     x="4"
     y="12.000001"
     ry="2"
     rx="2" />
  <rect
     y="12.500002"
     x="4.5000005"
     height="6.9999995"
     width="39.000004"
     id="rect4203"
     style="opacity:0.25;fill:none;fill-opacity:1;fill-rule:nonzero;stroke:url(#linearGradient4211);stroke-width:1;stroke-linecap:square;stroke-linejoin:miter;stroke-miterlimit:4;stroke-dasharray:none;stroke-opacity:1"
     ry="1.4999981"
     rx="1.5000038" />
  <rect
     style="opacity:1;fill:url(#radialGradient4272);fill-opacity:1;fill-rule:nonzero;stroke:none;stroke-width:2;stroke-linecap:square;stroke-linejoin:miter;stroke-miterlimit:4;stroke-dasharray:none;stroke-opacity:1"
     id="rect4178"
     width="34.10001"
     height="14.000004"
     x="6.9999986"
     y="2.0000081" />
  <g
     transform="matrix(0.74993124,0,0,0.7815095,-0.38095931,-0.38458657)"
     style="font-style:normal;font-variant:normal;font-weight:normal;font-stretch:normal;font-size:40.13550186px;line-height:69.99999881%;font-family:'Redacted Script';-inkscape-font-specification:'Redacted Script, Normal';text-align:center;letter-spacing:0px;word-spacing:0px;writing-mode:lr-tb;text-anchor:middle;fill:#000000;fill-opacity:1;stroke:none;stroke-width:1px;stroke-linecap:butt;stroke-linejoin:miter;stroke-opacity:1"
     id="text4261">
    <path
       inkscape:connector-curvature="0"
       d="m 13.121703,8.7211753 q -0.09031,0 -0.150508,-0.052678 -0.120407,-0.09783 -0.06773,-0.2483384 0,-0.00753 0.05268,-0.1806098 0.0602,-0.1730843 0.135457,-0.3913211 0.03763,-0.1279319 0.06773,-0.2182368 0.0301,-0.09783 0.05268,-0.1730843 -0.158034,0.060203 -0.36122,0.1354573 -0.203186,0.075254 -0.436473,0.1655589 -0.225763,0.08278 -0.466576,0.1730844 -0.240813,0.090305 -0.466575,0.1730843 -0.08278,0.030102 -0.165559,-0.00753 -0.0903,-0.045152 -0.127932,-0.1354573 -0.0301,-0.08278 0.01505,-0.1655589 0.03763,-0.090305 0.127932,-0.127932 0.338643,-0.1204065 0.699863,-0.2558638 0.368745,-0.1354573 0.669761,-0.2483384 0.301016,-0.1128811 0.496677,-0.1881351 0.203186,-0.075254 0.203186,-0.075254 0.03763,-0.00753 0.06773,-0.00753 0.03763,-0.00753 0.07525,0.00753 0.105355,0.015051 0.150508,0.1204065 0.03763,0.060203 0.0301,0.1580335 0,0.090305 -0.03763,0.2633893 -0.02258,0.09783 -0.0602,0.2182367 -0.0301,0.1128811 -0.08278,0.2633893 -0.0075,0.030102 -0.01505,0.052678 -0.0075,0.022576 -0.01505,0.052678 0.301016,-0.1655589 0.73749,-0.3461686 0.08278,-0.037627 0.165559,0 0.08278,0.030102 0.120406,0.1128811 0.04515,0.082779 0.0075,0.1730843 -0.03763,0.090305 -0.120407,0.1279319 -0.255864,0.1128811 -0.4741,0.2182368 -0.218237,0.1053557 -0.376271,0.1881351 -0.188135,0.09783 -0.338643,0.1806098 -0.04515,0.037627 -0.112881,0.037627 z"
       style="font-size:7.52540636px;line-height:69.99999881%"
       id="path4274" />
    <path
       inkscape:connector-curvature="0"
       d="m 15.279025,9.1651743 q -0.03763,0 -0.07525,-0.00753 -0.03763,0 -0.08278,-0.00753 -0.0903,-0.030102 -0.150508,-0.1279319 -0.02258,-0.045152 -0.0301,-0.1053557 -0.0075,-0.067729 0.01505,-0.1956606 0.0301,-0.1279319 0.09031,-0.3461687 0.06773,-0.2257622 0.180609,-0.5794562 -0.173084,0.060203 -0.383795,0.1429827 -0.210712,0.082779 -0.436474,0.1655589 -0.08278,0.030102 -0.165559,-0.00753 -0.09031,-0.045152 -0.127932,-0.1354573 -0.0301,-0.08278 0.01505,-0.1655589 0.03763,-0.090305 0.127932,-0.127932 0.240813,-0.090305 0.466575,-0.1730843 0.225762,-0.08278 0.398847,-0.1429827 0.173084,-0.067729 0.27844,-0.1053557 0.105355,-0.045153 0.105355,-0.045153 0.07526,-0.030102 0.142983,-0.00753 0.09783,0.022576 0.142983,0.1128811 0.03763,0.067729 0.02258,0.1204065 -0.0075,0.052678 -0.02258,0.1128811 -0.01505,0.030102 -0.02258,0.067729 -0.0075,0.030102 -0.02258,0.075254 -0.05268,0.1279319 -0.112881,0.316067 -0.05268,0.1806098 -0.112881,0.3687449 -0.03763,0.1053557 -0.0602,0.1806098 -0.02258,0.075254 -0.03763,0.1354573 0.142983,-0.030102 0.413897,-0.1730843 0.233288,-0.127932 0.496677,-0.2934909 0.263389,-0.1655589 0.549355,-0.3612195 0.0602,-0.037627 0.120406,-0.075254 0.0602,-0.037627 0.120407,-0.082779 0.08278,-0.052678 0.173084,-0.030102 0.09031,0.015051 0.150508,0.09783 0.05268,0.08278 0.0301,0.1730844 -0.01505,0.082779 -0.09783,0.1354573 -0.0602,0.045152 -0.127932,0.090305 -0.0602,0.037627 -0.127932,0.082779 -0.285966,0.1881352 -0.55688,0.3612195 -0.270915,0.1730844 -0.511728,0.3010163 -0.489151,0.2558638 -0.775117,0.2558638 z"
       style="font-size:7.52540636px;line-height:69.99999881%"
       id="path4276" />
    <path
       inkscape:connector-curvature="0"
       d="m 22.646045,8.7211753 q -0.0903,0 -0.150508,-0.052678 -0.120406,-0.09783 -0.06773,-0.2483384 0,-0.00753 0.05268,-0.1806098 0.0602,-0.1730843 0.135458,-0.3913211 0.03763,-0.1279319 0.06773,-0.2182368 0.0301,-0.09783 0.05268,-0.1730843 -0.158033,0.060203 -0.361219,0.1354573 -0.203186,0.075254 -0.436474,0.1655589 -0.225762,0.08278 -0.466575,0.1730844 -0.240813,0.090305 -0.466575,0.1730843 -0.08278,0.030102 -0.165559,-0.00753 -0.09031,-0.045152 -0.127932,-0.1354573 -0.0301,-0.08278 0.01505,-0.1655589 0.03763,-0.090305 0.127932,-0.127932 0.338643,-0.1204065 0.699862,-0.2558638 0.368745,-0.1354573 0.669762,-0.2483384 0.301016,-0.1128811 0.496676,-0.1881351 0.203186,-0.075254 0.203186,-0.075254 0.03763,-0.00753 0.06773,-0.00753 0.03763,-0.00753 0.07525,0.00753 0.105356,0.015051 0.150508,0.1204065 0.03763,0.060203 0.0301,0.1580335 0,0.090305 -0.03763,0.2633893 -0.02258,0.09783 -0.0602,0.2182367 -0.0301,0.1128811 -0.08278,0.2633893 -0.0075,0.030102 -0.01505,0.052678 -0.0075,0.022576 -0.01505,0.052678 0.301016,-0.1655589 0.737489,-0.3461686 0.08278,-0.037627 0.165559,0 0.08278,0.030102 0.120407,0.1128811 0.04515,0.082779 0.0075,0.1730843 -0.03763,0.090305 -0.120406,0.1279319 -0.255864,0.1128811 -0.474101,0.2182368 -0.218237,0.1053557 -0.37627,0.1881351 -0.188135,0.09783 -0.338644,0.1806098 -0.04515,0.037627 -0.112881,0.037627 z"
       style="font-size:7.52540636px;line-height:69.99999881%"
       id="path4278" />
    <path
       inkscape:connector-curvature="0"
       d="m 24.4572,9.1501235 q -0.0602,0 -0.112881,-0.00753 -0.04515,-0.00753 -0.09783,-0.022576 -0.135457,-0.037627 -0.188135,-0.1580336 -0.06773,-0.1505081 0,-0.3612195 0.07525,-0.2182368 0.240813,-0.55688 0.0301,-0.060203 0.0602,-0.1354574 0.0301,-0.075254 0.06773,-0.1429827 -0.09783,0.037627 -0.210711,0.1279319 -0.105356,0.08278 -0.218237,0.1730844 -0.07525,0.060203 -0.165559,0.045152 -0.09783,-0.015051 -0.158034,-0.08278 -0.0602,-0.075254 -0.04515,-0.1655589 0.01505,-0.090305 0.08278,-0.1580335 0.105356,-0.075254 0.218237,-0.165559 0.112881,-0.090305 0.240813,-0.1505081 0.308542,-0.1580335 0.564406,-0.08278 0.120406,0.022576 0.180609,0.1505082 0.0602,0.1279319 -0.0075,0.3010162 -0.0602,0.1730844 -0.210711,0.4891514 -0.03763,0.090305 -0.08278,0.1806098 -0.03763,0.090305 -0.07525,0.1730843 -0.01505,0.030102 -0.02258,0.052678 -0.0075,0.022576 -0.01505,0.045152 0.07525,-0.00753 0.188135,-0.045152 0.120407,-0.037627 0.270915,-0.1128811 0.158033,-0.08278 0.361219,-0.2182368 0.203186,-0.1354573 0.466576,-0.3386433 0.203186,-0.1655589 0.383795,-0.3235925 0.18061,-0.1580335 0.316067,-0.2859654 0.135458,-0.1279319 0.218237,-0.2107114 0.08278,-0.08278 0.08278,-0.08278 0.0903,-0.1053556 0.218236,-0.067729 0.0602,0.015051 0.09783,0.052678 0.03763,0.037627 0.0602,0.075254 0.05268,0.1053557 0.0075,0.2483384 -0.04515,0.1429827 -0.165559,0.443999 -0.04515,0.09783 -0.09031,0.1956605 -0.03763,0.09783 -0.07525,0.1806098 -0.0075,0.037627 -0.02258,0.082779 0.105356,-0.015051 0.225762,-0.082779 0.120407,-0.067729 0.240813,-0.1505081 0.120407,-0.08278 0.225763,-0.1730844 0.105355,-0.09783 0.188135,-0.1655589 0.07525,-0.067729 0.165559,-0.060203 0.0903,0.00753 0.158033,0.075254 0.0602,0.075254 0.05268,0.1655589 0,0.090305 -0.07525,0.1580336 -0.173084,0.1580335 -0.353694,0.3010162 -0.18061,0.1354573 -0.368745,0.240813 -0.18061,0.09783 -0.368745,0.1429828 -0.188135,0.037627 -0.368745,-0.00753 -0.120406,-0.045152 -0.173084,-0.1505081 -0.04515,-0.1053557 -0.0301,-0.2257622 0.02258,-0.1279319 0.09031,-0.3235924 -0.08278,0.075254 -0.173084,0.1429827 -0.08278,0.067729 -0.18061,0.1505081 -1.038506,0.8202693 -1.617962,0.8202693 z"
       style="font-size:7.52540636px;line-height:69.99999881%"
       id="path4280" />
    <path
       inkscape:connector-curvature="0"
       d="m 28.80124,9.1651743 q -0.03763,0 -0.07525,-0.00753 -0.03763,0 -0.08278,-0.00753 -0.09031,-0.030102 -0.150508,-0.1279319 -0.02258,-0.045152 -0.0301,-0.1053557 -0.0075,-0.067729 0.01505,-0.1956606 0.0301,-0.1279319 0.0903,-0.3461687 0.06773,-0.2257622 0.18061,-0.5794562 -0.173084,0.060203 -0.383796,0.1429827 -0.210711,0.082779 -0.436473,0.1655589 -0.08278,0.030102 -0.165559,-0.00753 -0.0903,-0.045152 -0.127932,-0.1354573 -0.0301,-0.08278 0.01505,-0.1655589 0.03763,-0.090305 0.127931,-0.127932 0.240813,-0.090305 0.466576,-0.1730843 0.225762,-0.08278 0.398846,-0.1429827 0.173085,-0.067729 0.27844,-0.1053557 0.105356,-0.045153 0.105356,-0.045153 0.07525,-0.030102 0.142983,-0.00753 0.09783,0.022576 0.142982,0.1128811 0.03763,0.067729 0.02258,0.1204065 -0.0075,0.052678 -0.02258,0.1128811 -0.01505,0.030102 -0.02258,0.067729 -0.0075,0.030102 -0.02258,0.075254 -0.05268,0.1279319 -0.112881,0.316067 -0.05268,0.1806098 -0.112881,0.3687449 -0.03763,0.1053557 -0.0602,0.1806098 -0.02258,0.075254 -0.03763,0.1354573 0.142983,-0.030102 0.413898,-0.1730843 0.233287,-0.127932 0.496677,-0.2934909 0.263389,-0.1655589 0.549354,-0.3612195 0.0602,-0.037627 0.120407,-0.075254 0.0602,-0.037627 0.120406,-0.082779 0.08278,-0.052678 0.173085,-0.030102 0.0903,0.015051 0.150508,0.09783 0.05268,0.08278 0.0301,0.1730844 -0.01505,0.082779 -0.09783,0.1354573 -0.0602,0.045152 -0.127932,0.090305 -0.0602,0.037627 -0.127932,0.082779 -0.285965,0.1881352 -0.55688,0.3612195 -0.270914,0.1730844 -0.511727,0.3010163 -0.489152,0.2558638 -0.775117,0.2558638 z"
       style="font-size:7.52540636px;line-height:69.99999881%"
       id="path4282" />
    <path
       inkscape:connector-curvature="0"
       d="m 37.093884,8.6459213 q -0.05268,0 -0.09783,-0.015051 -0.142983,-0.030102 -0.203186,-0.1730844 -0.04515,-0.1279319 0.02258,-0.2859654 0.06773,-0.1580336 0.195661,-0.3536941 0.04515,-0.067729 0.08278,-0.1354573 0.04515,-0.075254 0.07525,-0.1354574 0.02258,-0.030102 0.03763,-0.075254 -0.225762,-0.037627 -0.526778,-0.015051 -0.293491,0.015051 -0.662236,0.1128811 -0.331118,0.082779 -0.699863,0.2182367 -0.368744,0.127932 -0.782642,0.3085417 -0.08278,0.037627 -0.165559,0.00753 -0.08278,-0.037627 -0.120406,-0.1204065 -0.04515,-0.08278 -0.0075,-0.1730843 0.03763,-0.090305 0.120407,-0.1279319 0.428948,-0.1881352 0.805218,-0.3235925 0.383796,-0.1429827 0.73749,-0.2257622 0.925625,-0.2332876 1.512607,-0.075254 0.173084,0.045153 0.240813,0.2107114 0.06773,0.1730844 -0.0301,0.3762703 -0.09783,0.1956606 -0.233287,0.4138974 -0.01505,0.015051 -0.0301,0.037627 -0.0075,0.022576 -0.02258,0.052678 0.173084,-0.037627 0.504202,-0.1505081 0.338643,-0.1128811 0.940676,-0.3311179 0.08278,-0.030102 0.165559,0.015051 0.09031,0.037627 0.120406,0.1279319 0.03763,0.082779 0,0.1730843 -0.03763,0.08278 -0.135457,0.1204065 -0.346169,0.1204065 -0.632134,0.2182368 -0.285966,0.09783 -0.511728,0.1655589 -0.308542,0.090305 -0.466575,0.1279319 -0.150508,0.030102 -0.233288,0.030102 z"
       style="font-size:7.52540636px;line-height:69.99999881%"
       id="path4284" />
    <path
       inkscape:connector-curvature="0"
       d="m 41.532698,8.6459213 q -0.05268,0 -0.09783,-0.015051 -0.142983,-0.030102 -0.203186,-0.1730844 -0.04515,-0.1279319 0.02258,-0.2859654 0.06773,-0.1580336 0.195661,-0.3536941 0.04515,-0.067729 0.08278,-0.1354573 0.04515,-0.075254 0.07525,-0.1354574 0.02258,-0.030102 0.03763,-0.075254 -0.225763,-0.037627 -0.526779,-0.015051 -0.293491,0.015051 -0.662236,0.1128811 -0.331118,0.082779 -0.699862,0.2182367 -0.368745,0.127932 -0.782643,0.3085417 -0.08278,0.037627 -0.165559,0.00753 -0.08278,-0.037627 -0.120406,-0.1204065 -0.04515,-0.08278 -0.0075,-0.1730843 0.03763,-0.090305 0.120407,-0.1279319 0.428948,-0.1881352 0.805218,-0.3235925 0.383796,-0.1429827 0.73749,-0.2257622 0.925625,-0.2332876 1.512607,-0.075254 0.173084,0.045153 0.240813,0.2107114 0.06773,0.1730844 -0.0301,0.3762703 -0.09783,0.1956606 -0.233287,0.4138974 -0.01505,0.015051 -0.0301,0.037627 -0.0075,0.022576 -0.02258,0.052678 0.173084,-0.037627 0.504202,-0.1505081 0.338643,-0.1128811 0.940676,-0.3311179 0.08278,-0.030102 0.165559,0.015051 0.09031,0.037627 0.120406,0.1279319 0.03763,0.082779 0,0.1730843 -0.03763,0.08278 -0.135457,0.1204065 -0.346169,0.1204065 -0.632134,0.2182368 -0.285966,0.09783 -0.511728,0.1655589 -0.308541,0.090305 -0.466575,0.1279319 -0.150508,0.030102 -0.233288,0.030102 z"
       style="font-size:7.52540636px;line-height:69.99999881%"
       id="path4286" />
    <path
       inkscape:connector-curvature="0"
       d="m 45.045888,8.7211753 q -0.09031,0 -0.150508,-0.052678 -0.120407,-0.09783 -0.06773,-0.2483384 0,-0.00753 0.05268,-0.1806098 0.0602,-0.1730843 0.135457,-0.3913211 0.03763,-0.1279319 0.06773,-0.2182368 0.0301,-0.09783 0.05268,-0.1730843 -0.158034,0.060203 -0.36122,0.1354573 -0.203186,0.075254 -0.436474,0.1655589 -0.225762,0.08278 -0.466575,0.1730844 -0.240813,0.090305 -0.466575,0.1730843 -0.08278,0.030102 -0.165559,-0.00753 -0.09031,-0.045152 -0.127932,-0.1354573 -0.0301,-0.08278 0.01505,-0.1655589 0.03763,-0.090305 0.127932,-0.127932 0.338643,-0.1204065 0.699863,-0.2558638 0.368745,-0.1354573 0.669761,-0.2483384 0.301016,-0.1128811 0.496677,-0.1881351 0.203186,-0.075254 0.203186,-0.075254 0.03763,-0.00753 0.06773,-0.00753 0.03763,-0.00753 0.07525,0.00753 0.105356,0.015051 0.150509,0.1204065 0.03763,0.060203 0.0301,0.1580335 0,0.090305 -0.03763,0.2633893 -0.02258,0.09783 -0.0602,0.2182367 -0.0301,0.1128811 -0.08278,0.2633893 -0.0075,0.030102 -0.01505,0.052678 -0.0075,0.022576 -0.01505,0.052678 0.301016,-0.1655589 0.73749,-0.3461686 0.08278,-0.037627 0.165559,0 0.08278,0.030102 0.120406,0.1128811 0.04515,0.082779 0.0075,0.1730843 -0.03763,0.090305 -0.120406,0.1279319 -0.255864,0.1128811 -0.474101,0.2182368 -0.218236,0.1053557 -0.37627,0.1881351 -0.188135,0.09783 -0.338643,0.1806098 -0.04515,0.037627 -0.112881,0.037627 z"
       style="font-size:7.52540636px;line-height:69.99999881%"
       id="path4288" />
    <path
       inkscape:connector-curvature="0"
       d="m 48.896426,8.6459213 q -0.05268,0 -0.09783,-0.015051 -0.142983,-0.030102 -0.203186,-0.1730844 -0.04515,-0.1279319 0.02258,-0.2859654 0.06773,-0.1580336 0.195661,-0.3536941 0.04515,-0.067729 0.08278,-0.1354573 0.04515,-0.075254 0.07525,-0.1354574 0.02258,-0.030102 0.03763,-0.075254 -0.225762,-0.037627 -0.526778,-0.015051 -0.293491,0.015051 -0.662236,0.1128811 -0.331118,0.082779 -0.699863,0.2182367 -0.368745,0.127932 -0.782642,0.3085417 -0.08278,0.037627 -0.165559,0.00753 -0.08278,-0.037627 -0.120407,-0.1204065 -0.04515,-0.08278 -0.0075,-0.1730843 0.03763,-0.090305 0.120407,-0.1279319 0.428948,-0.1881352 0.805218,-0.3235925 0.383796,-0.1429827 0.73749,-0.2257622 0.925625,-0.2332876 1.512607,-0.075254 0.173084,0.045153 0.240813,0.2107114 0.06773,0.1730844 -0.0301,0.3762703 -0.09783,0.1956606 -0.233288,0.4138974 -0.01505,0.015051 -0.0301,0.037627 -0.0075,0.022576 -0.02258,0.052678 0.173085,-0.037627 0.504203,-0.1505081 0.338643,-0.1128811 0.940675,-0.3311179 0.08278,-0.030102 0.165559,0.015051 0.09031,0.037627 0.120407,0.1279319 0.03763,0.082779 0,0.1730843 -0.03763,0.08278 -0.135457,0.1204065 -0.346169,0.1204065 -0.632135,0.2182368 -0.285965,0.09783 -0.511727,0.1655589 -0.308542,0.090305 -0.466575,0.1279319 -0.150508,0.030102 -0.233288,0.030102 z"
       style="font-size:7.52540636px;line-height:69.99999881%"
       id="path4290" />
    <path
       inkscape:connector-curvature="0"
       d="m 51.642022,9.1651743 q -0.03763,0 -0.07525,-0.00753 -0.03763,0 -0.08278,-0.00753 -0.0903,-0.030102 -0.150508,-0.1279319 -0.02258,-0.045152 -0.0301,-0.1053557 -0.0075,-0.067729 0.01505,-0.1956606 0.0301,-0.1279319 0.09031,-0.3461687 0.06773,-0.2257622 0.18061,-0.5794562 -0.173084,0.060203 -0.383796,0.1429827 -0.210711,0.082779 -0.436473,0.1655589 -0.08278,0.030102 -0.165559,-0.00753 -0.09031,-0.045152 -0.127932,-0.1354573 -0.0301,-0.08278 0.01505,-0.1655589 0.03763,-0.090305 0.127932,-0.127932 0.240813,-0.090305 0.466575,-0.1730843 0.225762,-0.08278 0.398846,-0.1429827 0.173085,-0.067729 0.27844,-0.1053557 0.105356,-0.045153 0.105356,-0.045153 0.07525,-0.030102 0.142983,-0.00753 0.09783,0.022576 0.142983,0.1128811 0.03763,0.067729 0.02258,0.1204065 -0.0075,0.052678 -0.02258,0.1128811 -0.01505,0.030102 -0.02258,0.067729 -0.0075,0.030102 -0.02258,0.075254 -0.05268,0.1279319 -0.112881,0.316067 -0.05268,0.1806098 -0.112881,0.3687449 -0.03763,0.1053557 -0.0602,0.1806098 -0.02258,0.075254 -0.03763,0.1354573 0.142982,-0.030102 0.413897,-0.1730843 0.233288,-0.127932 0.496677,-0.2934909 0.263389,-0.1655589 0.549354,-0.3612195 0.0602,-0.037627 0.120407,-0.075254 0.0602,-0.037627 0.120406,-0.082779 0.08278,-0.052678 0.173085,-0.030102 0.09031,0.015051 0.150508,0.09783 0.05268,0.08278 0.0301,0.1730844 -0.01505,0.082779 -0.09783,0.1354573 -0.0602,0.045152 -0.127932,0.090305 -0.0602,0.037627 -0.127932,0.082779 -0.285965,0.1881352 -0.55688,0.3612195 -0.270914,0.1730844 -0.511727,0.3010163 -0.489152,0.2558638 -0.775117,0.2558638 z"
       style="font-size:7.52540636px;line-height:69.99999881%"
       id="path4292" />
    <path
       inkscape:connector-curvature="0"
       d="m 15.932325,14.417908 q -0.0602,0 -0.112882,-0.0075 -0.04515,-0.0075 -0.09783,-0.02258 -0.135457,-0.03763 -0.188135,-0.158033 -0.06773,-0.150508 0,-0.36122 0.07525,-0.218237 0.240813,-0.55688 0.0301,-0.0602 0.0602,-0.135457 0.0301,-0.07525 0.06773,-0.142983 -0.09783,0.03763 -0.210711,0.127932 -0.105356,0.08278 -0.218237,0.173084 -0.07525,0.0602 -0.165559,0.04515 -0.09783,-0.01505 -0.158034,-0.08278 -0.0602,-0.07525 -0.04515,-0.165559 0.01505,-0.0903 0.08278,-0.158033 0.105356,-0.07525 0.218237,-0.165559 0.112881,-0.0903 0.240813,-0.150508 0.308542,-0.158034 0.564406,-0.08278 0.120406,0.02258 0.180609,0.150508 0.0602,0.127932 -0.0075,0.301017 -0.0602,0.173084 -0.210711,0.489151 -0.03763,0.09031 -0.08278,0.18061 -0.03763,0.09031 -0.07525,0.173084 -0.01505,0.0301 -0.02258,0.05268 -0.0075,0.02258 -0.01505,0.04515 0.07525,-0.0075 0.188135,-0.04515 0.120407,-0.03763 0.270915,-0.112881 0.158033,-0.08278 0.361219,-0.218237 0.203186,-0.135457 0.466575,-0.338643 0.203186,-0.165559 0.383796,-0.323593 0.18061,-0.158033 0.316067,-0.285965 0.135458,-0.127932 0.218237,-0.210711 0.08278,-0.08278 0.08278,-0.08278 0.0903,-0.105356 0.218236,-0.06773 0.0602,0.01505 0.09783,0.05268 0.03763,0.03763 0.0602,0.07525 0.05268,0.105356 0.0075,0.248339 -0.04515,0.142982 -0.165559,0.443999 -0.04515,0.09783 -0.0903,0.19566 -0.03763,0.09783 -0.07525,0.18061 -0.0075,0.03763 -0.02258,0.08278 0.105356,-0.01505 0.225762,-0.08278 0.120407,-0.06773 0.240813,-0.150508 0.120407,-0.08278 0.225763,-0.173084 0.105355,-0.09783 0.188135,-0.165559 0.07525,-0.06773 0.165559,-0.0602 0.09031,0.0075 0.158033,0.07525 0.0602,0.07526 0.05268,0.165559 0,0.09031 -0.07525,0.158034 -0.173084,0.158033 -0.353694,0.301016 -0.18061,0.135458 -0.368745,0.240813 -0.18061,0.09783 -0.368745,0.142983 -0.188135,0.03763 -0.368745,-0.0075 -0.120406,-0.04515 -0.173084,-0.150509 -0.04515,-0.105355 -0.0301,-0.225762 0.02258,-0.127932 0.09031,-0.323592 -0.08278,0.07525 -0.173084,0.142982 -0.08278,0.06773 -0.18061,0.150509 -1.038506,0.820269 -1.617962,0.820269 z"
       style="font-size:7.52540636px;line-height:69.99999881%"
       id="path4294" />
    <path
       inkscape:connector-curvature="0"
       d="m 21.969582,13.913706 q -0.05268,0 -0.09783,-0.01505 -0.142983,-0.0301 -0.203186,-0.173085 -0.04515,-0.127931 0.02258,-0.285965 0.06773,-0.158034 0.19566,-0.353694 0.04515,-0.06773 0.08278,-0.135457 0.04515,-0.07525 0.07525,-0.135458 0.02258,-0.0301 0.03763,-0.07525 -0.225762,-0.03763 -0.526779,-0.01505 -0.29349,0.01505 -0.662235,0.112882 -0.331118,0.08278 -0.699863,0.218236 -0.368745,0.127932 -0.782642,0.308542 -0.08278,0.03763 -0.165559,0.0075 -0.08278,-0.03763 -0.120407,-0.120406 -0.04515,-0.08278 -0.0075,-0.173084 0.03763,-0.09031 0.120406,-0.127932 0.428948,-0.188136 0.805219,-0.323593 0.383795,-0.142983 0.73749,-0.225762 0.925625,-0.233288 1.512606,-0.07525 0.173085,0.04515 0.240813,0.210711 0.06773,0.173085 -0.0301,0.376271 -0.09783,0.19566 -0.233288,0.413897 -0.01505,0.01505 -0.0301,0.03763 -0.0075,0.02258 -0.02258,0.05268 0.173085,-0.03763 0.504202,-0.150508 0.338644,-0.112881 0.940676,-0.331118 0.08278,-0.0301 0.165559,0.01505 0.09031,0.03763 0.120407,0.127932 0.03763,0.08278 0,0.173084 -0.03763,0.08278 -0.135458,0.120406 -0.346168,0.120407 -0.632134,0.218237 -0.285965,0.09783 -0.511727,0.165559 -0.308542,0.0903 -0.466576,0.127932 -0.150508,0.0301 -0.233287,0.0301 z"
       style="font-size:7.52540636px;line-height:69.99999881%"
       id="path4296" />
    <path
       inkscape:connector-curvature="0"
       d="m 26.408395,13.913706 q -0.05268,0 -0.09783,-0.01505 -0.142983,-0.0301 -0.203186,-0.173085 -0.04515,-0.127931 0.02258,-0.285965 0.06773,-0.158034 0.195661,-0.353694 0.04515,-0.06773 0.08278,-0.135457 0.04515,-0.07525 0.07525,-0.135458 0.02258,-0.0301 0.03763,-0.07525 -0.225762,-0.03763 -0.526778,-0.01505 -0.293491,0.01505 -0.662236,0.112882 -0.331118,0.08278 -0.699863,0.218236 -0.368745,0.127932 -0.782642,0.308542 -0.08278,0.03763 -0.165559,0.0075 -0.08278,-0.03763 -0.120406,-0.120406 -0.04515,-0.08278 -0.0075,-0.173084 0.03763,-0.09031 0.120407,-0.127932 0.428948,-0.188136 0.805218,-0.323593 0.383796,-0.142983 0.73749,-0.225762 0.925625,-0.233288 1.512607,-0.07525 0.173084,0.04515 0.240813,0.210711 0.06773,0.173085 -0.0301,0.376271 -0.09783,0.19566 -0.233288,0.413897 -0.01505,0.01505 -0.0301,0.03763 -0.0075,0.02258 -0.02258,0.05268 0.173084,-0.03763 0.504202,-0.150508 0.338643,-0.112881 0.940676,-0.331118 0.08278,-0.0301 0.165559,0.01505 0.0903,0.03763 0.120406,0.127932 0.03763,0.08278 0,0.173084 -0.03763,0.08278 -0.135457,0.120406 -0.346169,0.120407 -0.632134,0.218237 -0.285966,0.09783 -0.511728,0.165559 -0.308542,0.0903 -0.466575,0.127932 -0.150508,0.0301 -0.233288,0.0301 z"
       style="font-size:7.52540636px;line-height:69.99999881%"
       id="path4298" />
    <path
       inkscape:connector-curvature="0"
       d="m 28.807824,14.417908 q -0.0602,0 -0.112881,-0.0075 -0.04515,-0.0075 -0.09783,-0.02258 -0.135457,-0.03763 -0.188135,-0.158033 -0.06773,-0.150508 0,-0.36122 0.07525,-0.218237 0.240813,-0.55688 0.0301,-0.0602 0.0602,-0.135457 0.0301,-0.07525 0.06773,-0.142983 -0.09783,0.03763 -0.210712,0.127932 -0.105355,0.08278 -0.218237,0.173084 -0.07525,0.0602 -0.165558,0.04515 -0.09783,-0.01505 -0.158034,-0.08278 -0.0602,-0.07525 -0.04515,-0.165559 0.01505,-0.0903 0.08278,-0.158033 0.105356,-0.07525 0.218237,-0.165559 0.112881,-0.0903 0.240813,-0.150508 0.308541,-0.158034 0.564405,-0.08278 0.120407,0.02258 0.18061,0.150508 0.0602,0.127932 -0.0075,0.301017 -0.0602,0.173084 -0.210712,0.489151 -0.03763,0.09031 -0.08278,0.18061 -0.03763,0.09031 -0.07525,0.173084 -0.01505,0.0301 -0.02258,0.05268 -0.0075,0.02258 -0.01505,0.04515 0.07525,-0.0075 0.188135,-0.04515 0.120406,-0.03763 0.270915,-0.112881 0.158033,-0.08278 0.361219,-0.218237 0.203186,-0.135457 0.466575,-0.338643 0.203186,-0.165559 0.383796,-0.323593 0.18061,-0.158033 0.316067,-0.285965 0.135457,-0.127932 0.218237,-0.210711 0.08278,-0.08278 0.08278,-0.08278 0.09031,-0.105356 0.218237,-0.06773 0.0602,0.01505 0.09783,0.05268 0.03763,0.03763 0.0602,0.07525 0.05268,0.105356 0.0075,0.248339 -0.04515,0.142982 -0.165559,0.443999 -0.04515,0.09783 -0.09031,0.19566 -0.03763,0.09783 -0.07525,0.18061 -0.0075,0.03763 -0.02258,0.08278 0.105356,-0.01505 0.225762,-0.08278 0.120407,-0.06773 0.240813,-0.150508 0.120407,-0.08278 0.225762,-0.173084 0.105356,-0.09783 0.188135,-0.165559 0.07525,-0.06773 0.165559,-0.0602 0.09031,0.0075 0.158034,0.07525 0.0602,0.07526 0.05268,0.165559 0,0.09031 -0.07525,0.158034 -0.173085,0.158033 -0.353694,0.301016 -0.18061,0.135458 -0.368745,0.240813 -0.18061,0.09783 -0.368745,0.142983 -0.188135,0.03763 -0.368745,-0.0075 -0.120407,-0.04515 -0.173085,-0.150509 -0.04515,-0.105355 -0.0301,-0.225762 0.02258,-0.127932 0.09031,-0.323592 -0.08278,0.07525 -0.173085,0.142982 -0.08278,0.06773 -0.180609,0.150509 -1.038506,0.820269 -1.617963,0.820269 z"
       style="font-size:7.52540636px;line-height:69.99999881%"
       id="path4300" />
    <path
       inkscape:connector-curvature="0"
       d="m 33.919456,13.98896 q -0.0903,0 -0.150508,-0.05268 -0.120407,-0.09783 -0.06773,-0.248339 0,-0.0075 0.05268,-0.180609 0.0602,-0.173085 0.135457,-0.391321 0.03763,-0.127932 0.06773,-0.218237 0.0301,-0.09783 0.05268,-0.173085 -0.158034,0.0602 -0.36122,0.135458 -0.203186,0.07525 -0.436473,0.165559 -0.225763,0.08278 -0.466576,0.173084 -0.240813,0.09031 -0.466575,0.173084 -0.08278,0.0301 -0.165559,-0.0075 -0.09031,-0.04515 -0.127932,-0.135457 -0.0301,-0.08278 0.01505,-0.165559 0.03763,-0.09031 0.127932,-0.127932 0.338643,-0.120407 0.699863,-0.255864 0.368745,-0.135457 0.669761,-0.248338 0.301016,-0.112882 0.496677,-0.188136 0.203186,-0.07525 0.203186,-0.07525 0.03763,-0.0075 0.06773,-0.0075 0.03763,-0.0075 0.07525,0.0075 0.105355,0.01505 0.150508,0.120407 0.03763,0.0602 0.0301,0.158033 0,0.0903 -0.03763,0.26339 -0.02258,0.09783 -0.0602,0.218236 -0.0301,0.112881 -0.08278,0.26339 -0.0075,0.0301 -0.01505,0.05268 -0.0075,0.02258 -0.01505,0.05268 0.301016,-0.165559 0.73749,-0.346168 0.08278,-0.03763 0.165559,0 0.08278,0.0301 0.120406,0.112881 0.04515,0.08278 0.0075,0.173084 -0.03763,0.09031 -0.120407,0.127932 -0.255864,0.112881 -0.4741,0.218237 -0.218237,0.105355 -0.376271,0.188135 -0.188135,0.09783 -0.338643,0.18061 -0.04515,0.03763 -0.112881,0.03763 z"
       style="font-size:7.52540636px;line-height:69.99999881%"
       id="path4302" />
    <path
       inkscape:connector-curvature="0"
       d="m 39.390428,14.417908 q -0.0602,0 -0.112881,-0.0075 -0.04515,-0.0075 -0.09783,-0.02258 -0.135457,-0.03763 -0.188135,-0.158033 -0.06773,-0.150508 0,-0.36122 0.07525,-0.218237 0.240813,-0.55688 0.0301,-0.0602 0.0602,-0.135457 0.0301,-0.07525 0.06773,-0.142983 -0.09783,0.03763 -0.210711,0.127932 -0.105356,0.08278 -0.218237,0.173084 -0.07525,0.0602 -0.165559,0.04515 -0.09783,-0.01505 -0.158034,-0.08278 -0.0602,-0.07525 -0.04515,-0.165559 0.01505,-0.0903 0.08278,-0.158033 0.105355,-0.07525 0.218236,-0.165559 0.112881,-0.0903 0.240813,-0.150508 0.308542,-0.158034 0.564406,-0.08278 0.120406,0.02258 0.18061,0.150508 0.0602,0.127932 -0.0075,0.301017 -0.0602,0.173084 -0.210711,0.489151 -0.03763,0.09031 -0.08278,0.18061 -0.03763,0.09031 -0.07525,0.173084 -0.01505,0.0301 -0.02258,0.05268 -0.0075,0.02258 -0.01505,0.04515 0.07525,-0.0075 0.188135,-0.04515 0.120407,-0.03763 0.270915,-0.112881 0.158033,-0.08278 0.361219,-0.218237 0.203186,-0.135457 0.466576,-0.338643 0.203186,-0.165559 0.383795,-0.323593 0.18061,-0.158033 0.316067,-0.285965 0.135458,-0.127932 0.218237,-0.210711 0.08278,-0.08278 0.08278,-0.08278 0.09031,-0.105356 0.218236,-0.06773 0.0602,0.01505 0.09783,0.05268 0.03763,0.03763 0.0602,0.07525 0.05268,0.105356 0.0075,0.248339 -0.04515,0.142982 -0.165559,0.443999 -0.04515,0.09783 -0.0903,0.19566 -0.03763,0.09783 -0.07525,0.18061 -0.0075,0.03763 -0.02258,0.08278 0.105356,-0.01505 0.225763,-0.08278 0.120406,-0.06773 0.240813,-0.150508 0.120406,-0.08278 0.225762,-0.173084 0.105355,-0.09783 0.188135,-0.165559 0.07525,-0.06773 0.165559,-0.0602 0.09031,0.0075 0.158033,0.07525 0.0602,0.07526 0.05268,0.165559 0,0.09031 -0.07525,0.158034 -0.173084,0.158033 -0.353694,0.301016 -0.18061,0.135458 -0.368745,0.240813 -0.18061,0.09783 -0.368745,0.142983 -0.188135,0.03763 -0.368745,-0.0075 -0.120406,-0.04515 -0.173084,-0.150509 -0.04515,-0.105355 -0.0301,-0.225762 0.02258,-0.127932 0.09031,-0.323592 -0.08278,0.07525 -0.173084,0.142982 -0.08278,0.06773 -0.18061,0.150509 -1.038506,0.820269 -1.617962,0.820269 z"
       style="font-size:7.52540636px;line-height:69.99999881%"
       id="path4304" />
    <path
       inkscape:connector-curvature="0"
       d="m 43.388299,14.417908 q -0.0602,0 -0.112881,-0.0075 -0.04515,-0.0075 -0.09783,-0.02258 -0.135458,-0.03763 -0.188135,-0.158033 -0.06773,-0.150508 0,-0.36122 0.07525,-0.218237 0.240813,-0.55688 0.0301,-0.0602 0.0602,-0.135457 0.0301,-0.07525 0.06773,-0.142983 -0.09783,0.03763 -0.210712,0.127932 -0.105356,0.08278 -0.218237,0.173084 -0.07525,0.0602 -0.165559,0.04515 -0.09783,-0.01505 -0.158033,-0.08278 -0.0602,-0.07525 -0.04515,-0.165559 0.01505,-0.0903 0.08278,-0.158033 0.105356,-0.07525 0.218237,-0.165559 0.112881,-0.0903 0.240813,-0.150508 0.308541,-0.158034 0.564405,-0.08278 0.120407,0.02258 0.18061,0.150508 0.0602,0.127932 -0.0075,0.301017 -0.0602,0.173084 -0.210712,0.489151 -0.03763,0.09031 -0.08278,0.18061 -0.03763,0.09031 -0.07525,0.173084 -0.01505,0.0301 -0.02258,0.05268 -0.0075,0.02258 -0.01505,0.04515 0.07525,-0.0075 0.188135,-0.04515 0.120406,-0.03763 0.270914,-0.112881 0.158034,-0.08278 0.36122,-0.218237 0.203186,-0.135457 0.466575,-0.338643 0.203186,-0.165559 0.383796,-0.323593 0.18061,-0.158033 0.316067,-0.285965 0.135457,-0.127932 0.218237,-0.210711 0.08278,-0.08278 0.08278,-0.08278 0.09031,-0.105356 0.218237,-0.06773 0.0602,0.01505 0.09783,0.05268 0.03763,0.03763 0.0602,0.07525 0.05268,0.105356 0.0075,0.248339 -0.04515,0.142982 -0.165559,0.443999 -0.04515,0.09783 -0.09031,0.19566 -0.03763,0.09783 -0.07525,0.18061 -0.0075,0.03763 -0.02258,0.08278 0.105355,-0.01505 0.225762,-0.08278 0.120406,-0.06773 0.240813,-0.150508 0.120406,-0.08278 0.225762,-0.173084 0.105356,-0.09783 0.188135,-0.165559 0.07525,-0.06773 0.165559,-0.0602 0.09031,0.0075 0.158034,0.07525 0.0602,0.07526 0.05268,0.165559 0,0.09031 -0.07525,0.158034 -0.173085,0.158033 -0.353695,0.301016 -0.180609,0.135458 -0.368744,0.240813 -0.18061,0.09783 -0.368745,0.142983 -0.188136,0.03763 -0.368745,-0.0075 -0.120407,-0.04515 -0.173085,-0.150509 -0.04515,-0.105355 -0.0301,-0.225762 0.02258,-0.127932 0.0903,-0.323592 -0.08278,0.07525 -0.173085,0.142982 -0.08278,0.06773 -0.18061,0.150509 -1.038506,0.820269 -1.617962,0.820269 z"
       style="font-size:7.52540636px;line-height:69.99999881%"
       id="path4306" />
    <path
       inkscape:connector-curvature="0"
       d="m 48.499931,13.98896 q -0.0903,0 -0.150508,-0.05268 -0.120407,-0.09783 -0.06773,-0.248339 0,-0.0075 0.05268,-0.180609 0.0602,-0.173085 0.135457,-0.391321 0.03763,-0.127932 0.06773,-0.218237 0.0301,-0.09783 0.05268,-0.173085 -0.158034,0.0602 -0.36122,0.135458 -0.203186,0.07525 -0.436474,0.165559 -0.225762,0.08278 -0.466575,0.173084 -0.240813,0.09031 -0.466575,0.173084 -0.08278,0.0301 -0.165559,-0.0075 -0.09031,-0.04515 -0.127932,-0.135457 -0.0301,-0.08278 0.01505,-0.165559 0.03763,-0.09031 0.127932,-0.127932 0.338643,-0.120407 0.699863,-0.255864 0.368745,-0.135457 0.669761,-0.248338 0.301016,-0.112882 0.496677,-0.188136 0.203186,-0.07525 0.203186,-0.07525 0.03763,-0.0075 0.06773,-0.0075 0.03763,-0.0075 0.07525,0.0075 0.105356,0.01505 0.150509,0.120407 0.03763,0.0602 0.0301,0.158033 0,0.0903 -0.03763,0.26339 -0.02258,0.09783 -0.0602,0.218236 -0.0301,0.112881 -0.08278,0.26339 -0.0075,0.0301 -0.01505,0.05268 -0.0075,0.02258 -0.01505,0.05268 0.301016,-0.165559 0.73749,-0.346168 0.08278,-0.03763 0.165559,0 0.08278,0.0301 0.120406,0.112881 0.04515,0.08278 0.0075,0.173084 -0.03763,0.09031 -0.120406,0.127932 -0.255864,0.112881 -0.474101,0.218237 -0.218236,0.105355 -0.37627,0.188135 -0.188135,0.09783 -0.338643,0.18061 -0.04515,0.03763 -0.112881,0.03763 z"
       style="font-size:7.52540636px;line-height:69.99999881%"
       id="path4308" />
    <path
       inkscape:connector-curvature="0"
       d="m 25.519163,19.18149 q -0.05268,0 -0.09783,-0.01505 -0.142983,-0.0301 -0.203186,-0.173084 -0.04515,-0.127932 0.02258,-0.285966 0.06773,-0.158033 0.195661,-0.353694 0.04515,-0.06773 0.08278,-0.135457 0.04515,-0.07525 0.07525,-0.135457 0.02258,-0.0301 0.03763,-0.07525 -0.225762,-0.03763 -0.526778,-0.01505 -0.293491,0.01505 -0.662236,0.112881 -0.331118,0.08278 -0.699863,0.218237 -0.368745,0.127932 -0.782642,0.308541 -0.08278,0.03763 -0.165559,0.0075 -0.08278,-0.03763 -0.120406,-0.120407 -0.04515,-0.08278 -0.0075,-0.173084 0.03763,-0.09031 0.120407,-0.127932 0.428948,-0.188135 0.805218,-0.323592 0.383796,-0.142983 0.73749,-0.225763 0.925625,-0.233287 1.512607,-0.07525 0.173084,0.04515 0.240813,0.210712 0.06773,0.173084 -0.0301,0.37627 -0.09783,0.195661 -0.233288,0.413897 -0.01505,0.01505 -0.0301,0.03763 -0.0075,0.02258 -0.02258,0.05268 0.173084,-0.03763 0.504202,-0.150508 0.338643,-0.112881 0.940676,-0.331118 0.08278,-0.0301 0.165558,0.01505 0.09031,0.03763 0.120407,0.127932 0.03763,0.08278 0,0.173084 -0.03763,0.08278 -0.135457,0.120407 -0.346169,0.120406 -0.632134,0.218237 -0.285966,0.09783 -0.511728,0.165558 -0.308542,0.09031 -0.466575,0.127932 -0.150508,0.0301 -0.233288,0.0301 z"
       style="font-size:7.52540636px;line-height:69.99999881%"
       id="path4310" />
    <path
       inkscape:connector-curvature="0"
       d="m 29.032352,19.256744 q -0.09031,0 -0.150508,-0.05268 -0.120407,-0.09783 -0.06773,-0.248338 0,-0.0075 0.05268,-0.18061 0.0602,-0.173084 0.135457,-0.391321 0.03763,-0.127932 0.06773,-0.218237 0.0301,-0.09783 0.05268,-0.173084 -0.158034,0.0602 -0.36122,0.135457 -0.203186,0.07525 -0.436473,0.165559 -0.225763,0.08278 -0.466576,0.173084 -0.240813,0.09031 -0.466575,0.173085 -0.08278,0.0301 -0.165559,-0.0075 -0.09031,-0.04515 -0.127932,-0.135457 -0.0301,-0.08278 0.01505,-0.165559 0.03763,-0.09031 0.127932,-0.127932 0.338643,-0.120406 0.699863,-0.255864 0.368745,-0.135457 0.669761,-0.248338 0.301016,-0.112881 0.496677,-0.188135 0.203186,-0.07525 0.203186,-0.07525 0.03763,-0.0075 0.06773,-0.0075 0.03763,-0.0075 0.07525,0.0075 0.105355,0.01505 0.150508,0.120406 0.03763,0.0602 0.0301,0.158034 0,0.09031 -0.03763,0.263389 -0.02258,0.09783 -0.0602,0.218237 -0.0301,0.112881 -0.08278,0.263389 -0.0075,0.0301 -0.01505,0.05268 -0.0075,0.02258 -0.01505,0.05268 0.301016,-0.165559 0.73749,-0.346169 0.08278,-0.03763 0.165559,0 0.08278,0.0301 0.120406,0.112881 0.04515,0.08278 0.0075,0.173084 -0.03763,0.09031 -0.120407,0.127932 -0.255864,0.112881 -0.4741,0.218237 -0.218237,0.105356 -0.376271,0.188135 -0.188135,0.09783 -0.338643,0.18061 -0.04515,0.03763 -0.112881,0.03763 z"
       style="font-size:7.52540636px;line-height:69.99999881%"
       id="path4312" />
    <path
       inkscape:connector-curvature="0"
       d="m 31.957266,19.256744 q -0.09031,0 -0.150508,-0.05268 -0.120407,-0.09783 -0.06773,-0.248338 0,-0.0075 0.05268,-0.18061 0.0602,-0.173084 0.135457,-0.391321 0.03763,-0.127932 0.06773,-0.218237 0.0301,-0.09783 0.05268,-0.173084 -0.158034,0.0602 -0.36122,0.135457 -0.203186,0.07525 -0.436473,0.165559 -0.225763,0.08278 -0.466576,0.173084 -0.240813,0.09031 -0.466575,0.173085 -0.08278,0.0301 -0.165559,-0.0075 -0.0903,-0.04515 -0.127932,-0.135457 -0.0301,-0.08278 0.01505,-0.165559 0.03763,-0.09031 0.127932,-0.127932 0.338643,-0.120406 0.699863,-0.255864 0.368745,-0.135457 0.669761,-0.248338 0.301016,-0.112881 0.496677,-0.188135 0.203186,-0.07525 0.203186,-0.07525 0.03763,-0.0075 0.06773,-0.0075 0.03763,-0.0075 0.07525,0.0075 0.105356,0.01505 0.150509,0.120406 0.03763,0.0602 0.0301,0.158034 0,0.09031 -0.03763,0.263389 -0.02258,0.09783 -0.0602,0.218237 -0.0301,0.112881 -0.08278,0.263389 -0.0075,0.0301 -0.01505,0.05268 -0.0075,0.02258 -0.01505,0.05268 0.301016,-0.165559 0.73749,-0.346169 0.08278,-0.03763 0.165559,0 0.08278,0.0301 0.120406,0.112881 0.04515,0.08278 0.0075,0.173084 -0.03763,0.09031 -0.120407,0.127932 -0.255864,0.112881 -0.474101,0.218237 -0.218236,0.105356 -0.37627,0.188135 -0.188135,0.09783 -0.338643,0.18061 -0.04515,0.03763 -0.112881,0.03763 z"
       style="font-size:7.52540636px;line-height:69.99999881%"
       id="path4314" />
    <path
       inkscape:connector-curvature="0"
       d="m 34.882179,19.256744 q -0.09031,0 -0.150508,-0.05268 -0.120407,-0.09783 -0.06773,-0.248338 0,-0.0075 0.05268,-0.18061 0.0602,-0.173084 0.135457,-0.391321 0.03763,-0.127932 0.06773,-0.218237 0.0301,-0.09783 0.05268,-0.173084 -0.158034,0.0602 -0.36122,0.135457 -0.203185,0.07525 -0.436473,0.165559 -0.225762,0.08278 -0.466575,0.173084 -0.240813,0.09031 -0.466575,0.173085 -0.08278,0.0301 -0.165559,-0.0075 -0.09031,-0.04515 -0.127932,-0.135457 -0.0301,-0.08278 0.01505,-0.165559 0.03763,-0.09031 0.127932,-0.127932 0.338644,-0.120406 0.699863,-0.255864 0.368745,-0.135457 0.669761,-0.248338 0.301017,-0.112881 0.496677,-0.188135 0.203186,-0.07525 0.203186,-0.07525 0.03763,-0.0075 0.06773,-0.0075 0.03763,-0.0075 0.07525,0.0075 0.105356,0.01505 0.150508,0.120406 0.03763,0.0602 0.0301,0.158034 0,0.09031 -0.03763,0.263389 -0.02258,0.09783 -0.0602,0.218237 -0.0301,0.112881 -0.08278,0.263389 -0.0075,0.0301 -0.01505,0.05268 -0.0075,0.02258 -0.01505,0.05268 0.301017,-0.165559 0.73749,-0.346169 0.08278,-0.03763 0.165559,0 0.08278,0.0301 0.120407,0.112881 0.04515,0.08278 0.0075,0.173084 -0.03763,0.09031 -0.120407,0.127932 -0.255863,0.112881 -0.4741,0.218237 -0.218237,0.105356 -0.37627,0.188135 -0.188136,0.09783 -0.338644,0.18061 -0.04515,0.03763 -0.112881,0.03763 z"
       style="font-size:7.52540636px;line-height:69.99999881%"
       id="path4316" />
    <path
       inkscape:connector-curvature="0"
       d="m 37.09218,19.030982 q -0.03763,0 -0.0602,-0.0075 -0.120407,-0.0301 -0.173085,-0.0903 -0.04515,-0.06773 -0.0602,-0.105356 -0.0602,-0.165559 0.0301,-0.338643 0.09783,-0.18061 0.240813,-0.376271 0.04515,-0.0602 0.08278,-0.127932 0.03763,-0.06773 0.07525,-0.127932 0.0075,-0.0075 0.02258,-0.0301 -0.04515,0.01505 -0.112881,0.04515 -0.0602,0.0301 -0.142982,0.09031 -0.135458,0.08278 -0.285966,0.218237 -0.150508,0.127932 -0.308542,0.270915 -0.03763,0.03763 -0.08278,0.07525 -0.03763,0.0301 -0.07525,0.06773 -0.06773,0.0602 -0.158034,0.0602 -0.09783,-0.0075 -0.158033,-0.08278 -0.06773,-0.06773 -0.0602,-0.158033 0.0075,-0.09783 0.07525,-0.158034 0.03763,-0.03763 0.08278,-0.06773 0.03763,-0.03763 0.07525,-0.07525 0.18061,-0.165559 0.353694,-0.308541 0.18061,-0.150508 0.346169,-0.255864 0.173084,-0.105356 0.338643,-0.150508 0.173085,-0.05268 0.331118,-0.0075 0.127932,0.03763 0.18061,0.105356 0.05268,0.06773 0.06773,0.120406 0.06773,0.173085 -0.0301,0.353695 -0.09783,0.180609 -0.248338,0.398846 -0.01505,0.01505 -0.03763,0.05268 -0.01505,0.0301 -0.03763,0.0602 0.112881,-0.04515 0.285965,-0.105355 0.18061,-0.06773 0.443999,-0.173085 0.09783,-0.0301 0.18061,0.01505 0.08278,0.03763 0.112881,0.127932 0.03763,0.08278 -0.0075,0.173084 -0.03763,0.08278 -0.120406,0.120407 -0.240813,0.08278 -0.436474,0.150508 -0.19566,0.06773 -0.331118,0.120406 -0.07525,0.0301 -0.135457,0.05268 -0.05268,0.01505 -0.09783,0.0301 -0.0602,0.01505 -0.09783,0.0301 -0.0301,0.0075 -0.06773,0.0075 z"
       style="font-size:7.52540636px;line-height:69.99999881%"
       id="path4318" />
    <path
       inkscape:connector-curvature="0"
       d="m 38.76576,19.685692 q -0.0602,0 -0.112881,-0.0075 -0.04515,-0.0075 -0.09783,-0.02258 -0.135458,-0.03763 -0.188135,-0.158034 -0.06773,-0.150508 0,-0.361219 0.07525,-0.218237 0.240813,-0.556881 0.0301,-0.0602 0.0602,-0.135457 0.0301,-0.07525 0.06773,-0.142983 -0.09783,0.03763 -0.210712,0.127932 -0.105356,0.08278 -0.218237,0.173085 -0.07525,0.0602 -0.165559,0.04515 -0.09783,-0.01505 -0.158033,-0.08278 -0.0602,-0.07525 -0.04515,-0.165559 0.01505,-0.09031 0.08278,-0.158034 0.105356,-0.07525 0.218237,-0.165559 0.112881,-0.0903 0.240813,-0.150508 0.308541,-0.158033 0.564405,-0.08278 0.120407,0.02258 0.18061,0.150508 0.0602,0.127932 -0.0075,0.301016 -0.0602,0.173084 -0.210712,0.489151 -0.03763,0.09031 -0.08278,0.18061 -0.03763,0.0903 -0.07525,0.173085 -0.01505,0.0301 -0.02258,0.05268 -0.0075,0.02258 -0.01505,0.04515 0.07525,-0.0075 0.188135,-0.04515 0.120406,-0.03763 0.270914,-0.112881 0.158034,-0.08278 0.36122,-0.218236 0.203186,-0.135458 0.466575,-0.338644 0.203186,-0.165559 0.383796,-0.323592 0.18061,-0.158034 0.316067,-0.285966 0.135457,-0.127932 0.218237,-0.210711 0.08278,-0.08278 0.08278,-0.08278 0.09031,-0.105355 0.218237,-0.06773 0.0602,0.01505 0.09783,0.05268 0.03763,0.03763 0.0602,0.07525 0.05268,0.105355 0.0075,0.248338 -0.04515,0.142983 -0.165559,0.443999 -0.04515,0.09783 -0.09031,0.195661 -0.03763,0.09783 -0.07525,0.180609 -0.0075,0.03763 -0.02258,0.08278 0.105355,-0.01505 0.225762,-0.08278 0.120406,-0.06773 0.240813,-0.150508 0.120406,-0.08278 0.225762,-0.173084 0.105356,-0.09783 0.188135,-0.165559 0.07525,-0.06773 0.165559,-0.0602 0.09031,0.0075 0.158034,0.07525 0.0602,0.07525 0.05268,0.165559 0,0.0903 -0.07525,0.158033 -0.173085,0.158034 -0.353695,0.301017 -0.180609,0.135457 -0.368744,0.240813 -0.18061,0.09783 -0.368745,0.142982 -0.188136,0.03763 -0.368745,-0.0075 -0.120407,-0.04515 -0.173085,-0.150508 -0.04515,-0.105356 -0.0301,-0.225762 0.02258,-0.127932 0.09031,-0.323593 -0.08278,0.07525 -0.173085,0.142983 -0.08278,0.06773 -0.180609,0.150508 -1.038507,0.820269 -1.617963,0.820269 z"
       style="font-size:7.52540636px;line-height:69.99999881%"
       id="path4320" />
  </g>
</svg>
